{"asset":{"generator":"glTF-Transform v4.2.1","version":"2.0","extras":{"author":"NestaEric (https://sketchfab.com/Nestaeric)","license":"CC-BY-4.0 (http://creativecommons.org/licenses/by/4.0/)","source":"https://sketchfab.com/3d-models/black-hole-e410da98b1e5445eae2acafaaa53587d","title":"Black Hole"}},"accessors":[{"type":"VEC3","componentType":5126,"count":65532,"max":[710.5692138671875,902.8566284179688,232.64744567871094],"min":[-710.5682983398438,-1019.3275756835938,-232.64744567871094],"bufferView":0,"byteOffset":0},{"type":"VEC3","componentType":5126,"count":65532,"bufferView":0,"byteOffset":12},{"type":"VEC2","componentType":5126,"count":65532,"bufferView":0,"byteOffset":24},{"type":"SCALAR","componentType":5125,"count":380127,"bufferView":1,"byteOffset":0},{"type":"SCALAR","componentType":5125,"count":379497,"bufferView":1,"byteOffset":1520508},{"type":"SCALAR","componentType":5125,"count":41016,"bufferView":1,"byteOffset":3038496},{"type":"SCALAR","componentType":5125,"count":161280,"bufferView":1,"byteOffset":3202560},{"type":"SCALAR","componentType":5125,"count":161280,"bufferView":1,"byteOffset":3847680},{"type":"SCALAR","componentType":5125,"count":183480,"bufferView":1,"byteOffset":4492800},{"type":"SCALAR","componentType":5125,"count":27960,"bufferView":1,"byteOffset":5226720},{"type":"SCALAR","componentType":5125,"count":23040,"bufferView":1,"byteOffset":5338560},{"type":"SCALAR","componentType":5125,"count":15792,"bufferView":1,"byteOffset":5430720},{"type":"SCALAR","componentType":5125,"count":65532,"bufferView":1,"byteOffset":5493888},{"type":"SCALAR","componentType":5125,"count":65532,"bufferView":1,"byteOffset":5756016},{"type":"SCALAR","componentType":5125,"count":65532,"bufferView":1,"byteOffset":6018144},{"type":"SCALAR","componentType":5125,"count":31560,"bufferView":1,"byteOffset":6280272},{"type":"SCALAR","componentType":5125,"count":960,"bufferView":1,"byteOffset":6406512},{"type":"VEC3","componentType":5126,"count":65532,"max":[1071.7872314453125,1071.36669921875,230.93157958984375],"min":[-1071.7860107421875,-1071.36669921875,-230.93157958984375],"bufferView":2,"byteOffset":0},{"type":"VEC3","componentType":5126,"count":65532,"bufferView":2,"byteOffset":12},{"type":"VEC2","componentType":5126,"count":65532,"bufferView":2,"byteOffset":24},{"type":"VEC3","componentType":5126,"count":7329,"max":[472.81719970703125,472.4698181152344,0.00014566360914614052],"min":[-472.8167419433594,-472.4698181152344,-161.12672424316406],"bufferView":3,"byteOffset":0},{"type":"VEC3","componentType":5126,"count":7329,"bufferView":3,"byteOffset":12},{"type":"VEC2","componentType":5126,"count":7329,"bufferView":3,"byteOffset":24},{"type":"VEC3","componentType":5126,"count":27504,"max":[1210.6104736328125,1210.1353759765625,231.32472229003906],"min":[-1210.6090087890625,-1210.1353759765625,-231.32472229003906],"bufferView":4,"byteOffset":0},{"type":"VEC3","componentType":5126,"count":27504,"bufferView":4,"byteOffset":12},{"type":"VEC2","componentType":5126,"count":27504,"bufferView":4,"byteOffset":24},{"type":"VEC2","componentType":5126,"count":27504,"bufferView":4,"byteOffset":32},{"type":"VEC3","componentType":5126,"count":27504,"max":[557.88232421875,557.4171142578125,207.6981201171875],"min":[-557.8817138671875,-557.4171142578125,-207.6981201171875],"bufferView":5,"byteOffset":0},{"type":"VEC3","componentType":5126,"count":27504,"bufferView":5,"byteOffset":12},{"type":"VEC2","componentType":5126,"count":27504,"bufferView":5,"byteOffset":24},{"type":"VEC2","componentType":5126,"count":27504,"bufferView":5,"byteOffset":32},{"type":"VEC3","componentType":5126,"count":31692,"max":[646.3285522460938,646.3651123046875,233.70172119140625],"min":[-646.3651123046875,-646.3651123046875,-233.70172119140625],"bufferView":6,"byteOffset":0},{"type":"VEC3","componentType":5126,"count":31692,"bufferView":6,"byteOffset":12},{"type":"VEC2","componentType":5126,"count":31692,"bufferView":6,"byteOffset":24},{"type":"VEC2","componentType":5126,"count":31692,"bufferView":6,"byteOffset":32},{"type":"VEC3","componentType":5126,"count":4946,"max":[229.53907775878906,228.90139770507812,200.24234008789062],"min":[-229.53907775878906,-228.90139770507812,-200.24234008789062],"bufferView":7,"byteOffset":0},{"type":"VEC3","componentType":5126,"count":4946,"bufferView":7,"byteOffset":12},{"type":"VEC2","componentType":5126,"count":4946,"bufferView":7,"byteOffset":24},{"type":"VEC3","componentType":5126,"count":4017,"max":[176.53773498535156,175.9488525390625,176.34400939941406],"min":[-176.53773498535156,-175.9488525390625,-176.34400939941406],"bufferView":8,"byteOffset":0},{"type":"VEC3","componentType":5126,"count":4017,"bufferView":8,"byteOffset":12},{"type":"VEC2","componentType":5126,"count":4017,"bufferView":8,"byteOffset":24},{"type":"VEC3","componentType":5126,"count":3886,"max":[1641.7510986328125,1642.2315673828125,10.028246879577637],"min":[-1641.4814453125,-1642.231689453125,-10.02846908569336],"bufferView":9,"byteOffset":0},{"type":"VEC3","componentType":5126,"count":3886,"bufferView":9,"byteOffset":12},{"type":"VEC2","componentType":5126,"count":3886,"bufferView":9,"byteOffset":24},{"type":"VEC2","componentType":5126,"count":3886,"bufferView":9,"byteOffset":32},{"type":"VEC3","componentType":5126,"count":65532,"max":[1632.188232421875,1559.541259765625,5.290078163146973],"min":[-1686.5477294921875,-1625.9366455078125,-5.296852111816406],"bufferView":10,"byteOffset":0},{"type":"VEC3","componentType":5126,"count":65532,"bufferView":10,"byteOffset":12},{"type":"VEC2","componentType":5126,"count":65532,"bufferView":10,"byteOffset":24},{"type":"VEC2","componentType":5126,"count":65532,"bufferView":10,"byteOffset":32},{"type":"VEC3","componentType":5126,"count":65532,"max":[1290.6917724609375,1300.1304931640625,5.264197826385498],"min":[-1291.463134765625,-1300.1304931640625,-5.264378070831299],"bufferView":11,"byteOffset":0},{"type":"VEC3","componentType":5126,"count":65532,"bufferView":11,"byteOffset":12},{"type":"VEC2","componentType":5126,"count":65532,"bufferView":11,"byteOffset":24},{"type":"VEC2","componentType":5126,"count":65532,"bufferView":11,"byteOffset":32},{"type":"VEC3","componentType":5126,"count":65532,"max":[1588.8521728515625,1632.9444580078125,4.409393310546875],"min":[-1629.4468994140625,-1656.2291259765625,-5.122742176055908],"bufferView":12,"byteOffset":0},{"type":"VEC3","componentType":5126,"count":65532,"bufferView":12,"byteOffset":12},{"type":"VEC2","componentType":5126,"count":65532,"bufferView":12,"byteOffset":24},{"type":"VEC2","componentType":5126,"count":65532,"bufferView":12,"byteOffset":32},{"type":"VEC3","componentType":5126,"count":31560,"max":[1615.8226318359375,1630.4052734375,3.2233126163482666],"min":[-1637.5631103515625,-1579.3792724609375,-2.727644205093384],"bufferView":13,"byteOffset":0},{"type":"VEC3","componentType":5126,"count":31560,"bufferView":13,"byteOffset":12},{"type":"VEC2","componentType":5126,"count":31560,"bufferView":13,"byteOffset":24},{"type":"VEC2","componentType":5126,"count":31560,"bufferView":13,"byteOffset":32},{"type":"VEC3","componentType":5126,"count":181,"max":[7.524367809295654,7.5235724449157715,7.423911094665527],"min":[-7.524367809295654,-7.5235724449157715,-7.423911094665527],"bufferView":14,"byteOffset":0},{"type":"VEC3","componentType":5126,"count":181,"bufferView":14,"byteOffset":12},{"type":"VEC2","componentType":5126,"count":181,"bufferView":14,"byteOffset":24}],"bufferViews":[{"buffer":0,"byteOffset":0,"byteLength":2097024,"byteStride":32,"target":34962},{"buffer":0,"byteOffset":2097024,"byteLength":6410352,"target":34963},{"buffer":0,"byteOffset":8507376,"byteLength":2097024,"byteStride":32,"target":34962},{"buffer":0,"byteOffset":10604400,"byteLength":234528,"byteStride":32,"target":34962},{"buffer":0,"byteOffset":10838928,"byteLength":1100160,"byteStride":40,"target":34962},{"buffer":0,"byteOffset":11939088,"byteLength":1100160,"byteStride":40,"target":34962},{"buffer":0,"byteOffset":13039248,"byteLength":1267680,"byteStride":40,"target":34962},{"buffer":0,"byteOffset":14306928,"byteLength":158272,"byteStride":32,"target":34962},{"buffer":0,"byteOffset":14465200,"byteLength":128544,"byteStride":32,"target":34962},{"buffer":0,"byteOffset":14593744,"byteLength":155440,"byteStride":40,"target":34962},{"buffer":0,"byteOffset":14749184,"byteLength":2621280,"byteStride":40,"target":34962},{"buffer":0,"byteOffset":17370464,"byteLength":2621280,"byteStride":40,"target":34962},{"buffer":0,"byteOffset":19991744,"byteLength":2621280,"byteStride":40,"target":34962},{"buffer":0,"byteOffset":22613024,"byteLength":1262400,"byteStride":40,"target":34962},{"buffer":0,"byteOffset":23875424,"byteLength":5792,"byteStride":32,"target":34962}],"samplers":[{"magFilter":9729,"minFilter":9987,"wrapS":10497,"wrapT":10497}],"textures":[{"source":0,"sampler":0},{"source":11,"sampler":0},{"source":1,"sampler":0},{"source":2,"sampler":0},{"source":3,"sampler":0},{"source":4,"sampler":0},{"source":5,"sampler":0},{"source":6,"sampler":0},{"source":7,"sampler":0},{"source":13,"sampler":0},{"source":8,"sampler":0},{"source":15,"sampler":0},{"source":9,"sampler":0},{"source":17,"sampler":0},{"source":10,"sampler":0},{"source":12,"sampler":0},{"source":14,"sampler":0},{"source":16,"sampler":0}],"images":[{"mimeType":"image/png","uri":"baseColor_1.png"},{"mimeType":"image/png","uri":"baseColor_2.png"},{"mimeType":"image/png","uri":"emissive_1.png"},{"mimeType":"image/png","uri":"baseColor_3.png"},{"mimeType":"image/png","uri":"emissive_2.png"},{"mimeType":"image/png","uri":"baseColor_4.png"},{"mimeType":"image/png","uri":"emissive_3.png"},{"mimeType":"image/png","uri":"baseColor_5.png"},{"mimeType":"image/png","uri":"baseColor_6.png"},{"mimeType":"image/png","uri":"baseColor_7.png"},{"mimeType":"image/png","uri":"specular_1.png"},{"mimeType":"image/png","uri":"metallicRoughness_1.png"},{"mimeType":"image/png","uri":"specular_2.png"},{"mimeType":"image/png","uri":"metallicRoughness_2.png"},{"mimeType":"image/png","uri":"specular_3.png"},{"mimeType":"image/png","uri":"metallicRoughness_3.png"},{"mimeType":"image/png","uri":"specular_4.png"},{"mimeType":"image/png","uri":"metallicRoughness_4.png"}],"buffers":[{"uri":"black_hole.bin","byteLength":23881216}],"materials":[{"name":"black_hole_blackoutside","alphaMode":"MASK","alphaCutoff":0.7908595530957808,"pbrMetallicRoughness":{"baseColorFactor":[0,0,0,1],"metallicFactor":0,"baseColorTexture":{"index":0},"metallicRoughnessTexture":{"index":1,"extensions":{"KHR_texture_transform":{"scale":[2.0000000000000027,3.000000000000003]}}}},"extensions":{"KHR_materials_ior":{"ior":1000},"KHR_materials_specular":{"specularColorFactor":[0.2,0.2,0.2],"specularTexture":{"index":14,"extensions":{"KHR_texture_transform":{"scale":[2.0000000000000027,3.000000000000003]}}},"specularColorTexture":{"index":14,"extensions":{"KHR_texture_transform":{"scale":[2.0000000000000027,3.000000000000003]}}}}}},{"name":"black_hole_light3","alphaMode":"MASK","alphaCutoff":0.7969548097670393,"pbrMetallicRoughness":{"roughnessFactor":0.8308566273725787,"metallicFactor":0,"baseColorTexture":{"index":2}},"emissiveFactor":[0.2,0.2,0.2],"emissiveTexture":{"index":3},"extensions":{"KHR_materials_ior":{"ior":1000},"KHR_materials_specular":{"specularColorFactor":[0.041142982530994375,0.041142982530994375,0.041142982530994375]}}},{"name":"black_hole_light2","alphaMode":"MASK","alphaCutoff":0.7299069863831965,"pbrMetallicRoughness":{"roughnessFactor":0.6723799539198596,"metallicFactor":0,"baseColorTexture":{"index":4}},"emissiveFactor":[0.6,0.6,0.6],"emissiveTexture":{"index":5},"extensions":{"KHR_materials_ior":{"ior":1000},"KHR_materials_specular":{"specularColorFactor":[0.05,0.05,0.05]}}},{"name":"black_hole_light1","alphaMode":"MASK","alphaCutoff":0.6201923663005449,"pbrMetallicRoughness":{"metallicFactor":0,"baseColorTexture":{"index":6}},"emissiveFactor":[1,1,1],"emissiveTexture":{"index":7},"extensions":{"KHR_materials_emissive_strength":{"emissiveStrength":2},"KHR_materials_ior":{"ior":1000},"KHR_materials_specular":{"specularColorFactor":[0,0,0]}}},{"name":"black_hole_distortion","alphaMode":"BLEND","pbrMetallicRoughness":{"baseColorFactor":[0,0,0,0],"metallicFactor":0},"extensions":{"KHR_materials_ior":{"ior":1000},"KHR_materials_specular":{"specularColorFactor":[0,0,0]}}},{"name":"black_hole_center","alphaMode":"BLEND","pbrMetallicRoughness":{"baseColorFactor":[0,0,0,0.888],"metallicFactor":0},"extensions":{"KHR_materials_ior":{"ior":1000},"KHR_materials_specular":{"specularColorFactor":[0,0,0]}}},{"name":"ring","alphaMode":"BLEND","pbrMetallicRoughness":{"baseColorFactor":[0.5,0.5,0.5,1],"metallicFactor":0,"baseColorTexture":{"index":8},"metallicRoughnessTexture":{"index":9,"extensions":{"KHR_texture_transform":{"scale":[2.0000000000000027,1]}}}},"extensions":{"KHR_materials_ior":{"ior":1000},"KHR_materials_specular":{"specularColorFactor":[0.5,0.5,0.5],"specularTexture":{"index":15,"extensions":{"KHR_texture_transform":{"scale":[2.0000000000000027,1]}}},"specularColorTexture":{"index":15,"extensions":{"KHR_texture_transform":{"scale":[2.0000000000000027,1]}}}}}},{"name":"ring2","alphaMode":"BLEND","pbrMetallicRoughness":{"baseColorFactor":[0.5,0.5,0.5,0.2],"metallicFactor":0,"baseColorTexture":{"index":10},"metallicRoughnessTexture":{"index":11}},"extensions":{"KHR_materials_ior":{"ior":1000},"KHR_materials_specular":{"specularColorFactor":[0.5958113396155111,0.5958113396155111,0.5958113396155111],"specularTexture":{"index":16},"specularColorTexture":{"index":16}}}},{"name":"Planet","doubleSided":true,"pbrMetallicRoughness":{"baseColorFactor":[0.5,0.5,0.5,1],"metallicFactor":0,"baseColorTexture":{"index":12},"metallicRoughnessTexture":{"index":13}},"extensions":{"KHR_materials_ior":{"ior":1000},"KHR_materials_specular":{"specularColorFactor":[0.5470492862454438,0.5470492862454438,0.5470492862454438],"specularTexture":{"index":17},"specularColorTexture":{"index":17}}}}],"meshes":[{"name":"black hole_black hole blackoutside_0","primitives":[{"attributes":{"NORMAL":1,"POSITION":0,"TEXCOORD_0":2},"mode":4,"material":0,"indices":3}]},{"name":"black hole_black hole blackoutside_0","primitives":[{"attributes":{"NORMAL":18,"POSITION":17,"TEXCOORD_0":19},"mode":4,"material":0,"indices":4}]},{"name":"black hole_black hole blackoutside_0","primitives":[{"attributes":{"NORMAL":21,"POSITION":20,"TEXCOORD_0":22},"mode":4,"material":0,"indices":5}]},{"name":"black hole_black hole light3_0","primitives":[{"attributes":{"NORMAL":24,"POSITION":23,"TEXCOORD_0":25,"TEXCOORD_1":26},"mode":4,"material":1,"indices":6}]},{"name":"black hole_black hole light2_0","primitives":[{"attributes":{"NORMAL":28,"POSITION":27,"TEXCOORD_0":29,"TEXCOORD_1":30},"mode":4,"material":2,"indices":7}]},{"name":"black hole_black hole light1_0","primitives":[{"attributes":{"NORMAL":32,"POSITION":31,"TEXCOORD_0":33,"TEXCOORD_1":34},"mode":4,"material":3,"indices":8}]},{"name":"black hole_black hole distortion_0","primitives":[{"attributes":{"NORMAL":36,"POSITION":35,"TEXCOORD_0":37},"mode":4,"material":4,"indices":9}]},{"name":"black hole_black hole center_0","primitives":[{"attributes":{"NORMAL":39,"POSITION":38,"TEXCOORD_0":40},"mode":4,"material":5,"indices":10}]},{"name":"black hole_ring_ring_0","primitives":[{"attributes":{"NORMAL":42,"POSITION":41,"TEXCOORD_0":43,"TEXCOORD_1":44},"mode":4,"material":6,"indices":11}]},{"name":"black hole_ring_ring2_0","primitives":[{"attributes":{"NORMAL":46,"POSITION":45,"TEXCOORD_0":47,"TEXCOORD_1":48},"mode":4,"material":7,"indices":12}]},{"name":"black hole_ring_ring2_0","primitives":[{"attributes":{"NORMAL":50,"POSITION":49,"TEXCOORD_0":51,"TEXCOORD_1":52},"mode":4,"material":7,"indices":13}]},{"name":"black hole_ring_ring2_0","primitives":[{"attributes":{"NORMAL":54,"POSITION":53,"TEXCOORD_0":55,"TEXCOORD_1":56},"mode":4,"material":7,"indices":14}]},{"name":"black hole_ring_ring2_0","primitives":[{"attributes":{"NORMAL":58,"POSITION":57,"TEXCOORD_0":59,"TEXCOORD_1":60},"mode":4,"material":7,"indices":15}]},{"name":"Planet_Planet_0","primitives":[{"attributes":{"NORMAL":62,"POSITION":61,"TEXCOORD_0":63},"mode":4,"material":8,"indices":16}]}],"nodes":[{"name":"Sketchfab_model","rotation":[-0.6947243796573389,-0.1317499006061315,0.13174990060613148,0.694724379657339],"children":[1]},{"name":"d0ad2bab1646454389c3b616e2fa1390.fbx","rotation":[0.7071067811865475,0,0,0.7071067811865476],"scale":[0.009999999776482582,0.009999999776482582,0.009999999776482582],"children":[2]},{"name":"RootNode","children":[3,12,18]},{"name":"black hole","rotation":[-0.7071068387877038,0,0,0.7071067235853866],"scale":[100,100.00000000000001,100.00000000000001],"children":[4,5,6,7,8,9,10,11]},{"name":"black hole_black hole blackoutside_0","mesh":0},{"name":"black hole_black hole blackoutside_0","mesh":1},{"name":"black hole_black hole blackoutside_0","mesh":2},{"name":"black hole_black hole light3_0","mesh":3},{"name":"black hole_black hole light2_0","mesh":4},{"name":"black hole_black hole light1_0","mesh":5},{"name":"black hole_black hole distortion_0","mesh":6},{"name":"black hole_black hole center_0","mesh":7},{"name":"black hole_ring","rotation":[-0.7071068387877038,0,0,0.7071067235853866],"scale":[100,100.00000000000001,100.00000000000001],"children":[13,14,15,16,17]},{"name":"black hole_ring_ring_0","mesh":8},{"name":"black hole_ring_ring2_0","mesh":9},{"name":"black hole_ring_ring2_0","mesh":10},{"name":"black hole_ring_ring2_0","mesh":11},{"name":"black hole_ring_ring2_0","mesh":12},{"name":"Planet","translation":[30802.896484375,2286.717041015625,136477.796875],"rotation":[-0.7071068387877038,0,0,0.7071067235853866],"scale":[100,100.00000000000001,100.00000000000001],"children":[19]},{"name":"Planet_Planet_0","mesh":13}],"scenes":[{"name":"Sketchfab_Scene","nodes":[0]}],"scene":0,"extensionsUsed":["KHR_materials_emissive_strength","KHR_materials_ior","KHR_materials_specular","KHR_texture_transform"]}